<svg width="50" height="54" viewBox="0 0 50 54" fill="none" xmlns="http://www.w3.org/2000/svg">
<path fill-rule="evenodd" clip-rule="evenodd" d="M47.452 5.10827C48.6603 5.10827 49.6458 6.04539 49.6458 7.19427V45.5766C49.6458 46.7255 48.6603 47.6626 47.452 47.6626H13.6675C13.0267 47.6626 12.4485 47.399 12.0469 46.9801C12.0606 46.5209 11.955 46.0586 11.7297 45.6426L12.5973 44.8422C12.8375 45.0172 13.0843 45.184 13.3372 45.3422C13.749 45.8123 14.337 46.1291 14.9864 46.2123C16.5759 46.9082 18.3305 47.2923 20.1504 47.2923C21.9511 47.2923 23.688 46.9162 25.2644 46.2341H41.0764C41.7219 46.2341 42.3303 46.0152 42.8179 45.5916L47.534 41.4942C48.0738 41.0252 48.3822 40.3733 48.3822 39.6571V9.01656C48.3822 7.60344 47.1765 6.53681 45.7922 6.53681H41.3592V5.10827H47.452ZM11.2509 43.708C11.0396 43.5025 10.8359 43.2895 10.6403 43.0696L9.93586 43.7196L10.5675 44.3386L11.2509 43.708ZM20.1503 28.0542C15.905 28.0542 12.4635 31.3265 12.4635 35.3633C12.4635 39.3998 15.905 42.6723 20.1503 42.6723C24.3956 42.6723 27.837 39.4 27.837 35.3633C27.837 31.3265 24.3956 28.0542 20.1503 28.0542ZM2.74949 52.9702L0.627066 50.8903C0.254316 50.525 0.263722 49.9364 0.647847 49.5819L6.52654 44.1578C6.91066 43.8033 7.53005 43.8121 7.90269 44.1773L10.0251 46.2572C10.3979 46.6224 10.3886 47.2114 10.0044 47.5658L4.12575 52.9899C3.74152 53.3442 3.12235 53.3355 2.74949 52.9702ZM20.1503 25.1844C14.2381 25.1844 9.44532 29.7416 9.44532 35.3633C9.44532 40.9849 14.238 45.5421 20.1503 45.5421C26.0626 45.5421 30.8553 40.9848 30.8553 35.3633C30.8553 29.7416 26.0624 25.1844 20.1503 25.1844ZM20.1503 44.4223C15.093 44.4223 10.7135 40.5104 10.7135 35.3634C10.7135 30.2162 15.093 26.3043 20.1503 26.3043C25.2077 26.3043 29.5871 30.2162 29.5871 35.3634C29.5869 40.5104 25.2076 44.4223 20.1503 44.4223ZM39.0624 3.53589H34.8672C34.479 1.93759 33.0299 0.75 31.3011 0.75C29.5724 0.75 28.1232 1.93759 27.735 3.53589H23.5399C23.2387 3.53589 22.9931 3.78155 22.9931 4.08277V8.56091C22.9931 8.86213 23.2387 9.10778 23.5399 9.10778H39.0624C39.3635 9.10778 39.6093 8.86213 39.6093 8.56091V4.08277C39.6092 3.78155 39.3635 3.53589 39.0624 3.53589ZM31.4248 4.54247C30.8888 4.54247 30.4543 4.11098 30.4543 3.57877C30.4543 3.04655 30.8887 2.61506 31.4248 2.61506C31.9607 2.61506 32.3951 3.04644 32.3951 3.57877C32.3951 4.11098 31.9607 4.54247 31.4248 4.54247ZM41.424 44.4208C41.5132 44.3854 41.5953 44.3352 41.67 44.2703L46.3861 40.1729C46.4608 40.1079 46.5185 40.0367 46.5593 39.9592H41.8441C41.6127 39.9592 41.424 40.123 41.424 40.324V44.4208ZM45.7922 8.28681H41.3592V8.56091C41.3592 9.82802 40.3294 10.8578 39.0623 10.8578H23.5398C22.2727 10.8578 21.2429 9.82802 21.2429 8.56091V8.28681H15.3273C14.8647 8.28681 14.4873 8.61472 14.4873 9.01656V24.7456C15.6718 24.1652 16.9583 23.7617 18.3027 23.5672V14.427C18.3027 13.9438 18.6945 13.552 19.1777 13.552H31.2494C31.7327 13.552 32.1244 13.9438 32.1244 14.427V24.5955C32.1244 25.0536 31.9229 25.4647 31.5978 25.758C31.2977 26.0288 30.8894 26.1968 30.4448 26.1968H28.1134C30.8292 28.3521 32.6051 31.6047 32.6051 35.3634C32.6051 39.0952 30.8545 42.3286 28.1713 44.4841H39.6739V40.3242C39.6739 39.1346 40.6681 38.2094 41.8439 38.2094H46.6321V9.01656C46.6322 8.61472 46.2548 8.28681 45.7922 8.28681ZM42.1507 33.2902H34.8707C34.3875 33.2902 33.9957 32.8984 33.9957 32.4152C33.9957 31.9319 34.3875 31.5402 34.8707 31.5402H42.1507C42.634 31.5402 43.0257 31.9319 43.0257 32.4152C43.0257 32.8984 42.634 33.2902 42.1507 33.2902ZM42.1507 29.6586H34.8707C34.3875 29.6586 33.9957 29.2668 33.9957 28.7836C33.9957 28.3004 34.3875 27.9086 34.8707 27.9086H42.1507C42.634 27.9086 43.0257 28.3004 43.0257 28.7836C43.0257 29.2668 42.634 29.6586 42.1507 29.6586ZM42.1507 26.027H34.8707C34.3875 26.027 33.9957 25.6352 33.9957 25.152C33.9957 24.6688 34.3875 24.277 34.8707 24.277H42.1507C42.634 24.277 43.0257 24.6688 43.0257 25.152C43.0257 25.6352 42.634 26.027 42.1507 26.027ZM42.1507 22.3954H34.8707C34.3875 22.3954 33.9957 22.0036 33.9957 21.5204C33.9957 21.0372 34.3875 20.6454 34.8707 20.6454H42.1507C42.634 20.6454 43.0257 21.0372 43.0257 21.5204C43.0257 22.0036 42.634 22.3954 42.1507 22.3954ZM42.1507 18.7638H34.8707C34.3875 18.7638 33.9957 18.3721 33.9957 17.8888C33.9957 17.4056 34.3875 17.0138 34.8707 17.0138H42.1507C42.634 17.0138 43.0257 17.4056 43.0257 17.8888C43.0257 18.3721 42.634 18.7638 42.1507 18.7638ZM42.1507 15.1323H34.8707C34.3875 15.1323 33.9957 14.7405 33.9957 14.2573C33.9957 13.774 34.3875 13.3823 34.8707 13.3823H42.1507C42.634 13.3823 43.0257 13.774 43.0257 14.2573C43.0257 14.7405 42.634 15.1323 42.1507 15.1323ZM28.1096 15.3019V18.8719C28.1096 19.3551 27.7178 19.7469 27.2346 19.7469H23.1928C22.7096 19.7469 22.3178 19.3551 22.3178 18.8719V15.3019H20.0528V23.4355C21.8075 23.4221 23.5413 23.7641 25.1582 24.4466H30.3746V15.3019H28.1096ZM26.3596 15.3019H24.0678V17.9969H26.3597V15.3019H26.3596ZM11.4738 26.8078C11.8713 26.4401 12.2934 26.098 12.7375 25.7838V9.01656C12.7375 7.60344 13.9431 6.53681 15.3275 6.53681H21.2432V5.10827H13.6676C12.4594 5.10827 11.4739 6.04539 11.4739 7.19427L11.4738 26.8078Z" fill="white"/>
</svg>
